<?xml version="1.0" encoding="UTF-8"?>
<svg id="Layer_1" data-name="Layer 1" xmlns="http://www.w3.org/2000/svg" version="1.1" xmlns:xlink="http://www.w3.org/1999/xlink" viewBox="0 0 548.59 548.59">
  <defs>
    <style>
      .cls-1, .cls-2, .cls-3, .cls-4, .cls-5 {
        stroke-miterlimit: 10;
      }

      .cls-1, .cls-2, .cls-3, .cls-4, .cls-5, .cls-6 {
        stroke: #231f20;
        stroke-width: 2px;
      }

      .cls-1, .cls-3, .cls-7 {
        fill: none;
      }

      .cls-2, .cls-8 {
        fill: #fff;
      }

      .cls-3, .cls-7, .cls-6 {
        stroke-linecap: round;
      }

      .cls-4, .cls-9 {
        fill: #53a553;
      }

      .cls-7 {
        stroke: #fff;
      }

      .cls-7, .cls-6 {
        stroke-linejoin: round;
      }

      .cls-10 {
        clip-path: url(#clippath);
      }

      .cls-11 {
        fill: #231f20;
      }

      .cls-11, .cls-8, .cls-12 {
        stroke-width: 0px;
      }

      .cls-5 {
        fill: #ffae3e;
      }

      .cls-6 {
        fill: #fff1d2;
      }

      .cls-12 {
        fill: #34693d;
      }
    </style>
    <clipPath id="clippath">
      <path class="cls-4" d="M362.82,180.23s-6.88-36.9-52.88-41.86c0,0-28.64-23.13-88.4-18.18-59.76,4.96-76.56,28.37-71.6,33.6,4.96,5.23,19.55-.55,22.03,12.67,0,0-17.35,15.7-20.93,45.72,0,0-20.52,9.64-18.45,36.49,0,0-56.59,59.9-10.33,121.45,46.27,61.55,183.41,66.51,248.68,52.46,65.27-14.05,113.19-90.88,51.22-154.5,0,0-6.75-66.23-59.35-87.85Z"/>
    </clipPath>
  </defs>
  <g>
    <g>
      <path class="cls-9" d="M362.82,180.23s-6.88-36.9-52.88-41.86c0,0-28.64-23.13-88.4-18.18-59.76,4.96-76.56,28.37-71.6,33.6,4.96,5.23,19.55-.55,22.03,12.67,0,0-17.35,15.7-20.93,45.72,0,0-20.52,9.64-18.45,36.49,0,0-56.59,59.9-10.33,121.45,46.27,61.55,183.41,66.51,248.68,52.46,65.27-14.05,113.19-90.88,51.22-154.5,0,0-6.75-66.23-59.35-87.85Z"/>
      <g class="cls-10">
        <path class="cls-3" d="M151.04,212.18s12.17-5.76,30.62-5.76"/>
        <path class="cls-3" d="M132.59,248.67s2.77-4.83,10.41-8.44"/>
        <path class="cls-3" d="M309.94,138.37s-6.18-1.04-15.55,4.33"/>
        <path class="cls-3" d="M362.82,180.23s-16.79-5.17-33.31-1.32"/>
        <path class="cls-3" d="M171.97,166.46s8-7.51,25.9-10.82"/>
        <path class="cls-3" d="M421.35,305.73s-15.97,1.38-22.58,9.91"/>
        <path class="cls-3" d="M193.05,311.52s-11.84-14.05-27.26-11.84"/>
        <path class="cls-12" d="M145.92,147.97s13.77-4.13,25.89-.83c12.12,3.3,15.98,11.06,15.98,11.06,0,0-8.55,9.87-12.68,26.94-4.13,17.07-4.14,21.93-4.14,21.93,0,0-17.89,19.66-16.24,36.18,0,0-23.68,10.74-35.53,57.01-11.84,46.27,21.55,90.6,21.55,90.6,0,0-150.16-186.44-141.9-224.45C7.13,128.41,51.74,57.36,63.31,35.88"/>
      </g>
      <path class="cls-1" d="M362.82,180.23s-6.88-36.9-52.88-41.86c0,0-28.64-23.13-88.4-18.18-59.76,4.96-76.56,28.37-71.6,33.6,4.96,5.23,19.55-.55,22.03,12.67,0,0-17.35,15.7-20.93,45.72,0,0-20.52,9.64-18.45,36.49,0,0-56.59,59.9-10.33,121.45,46.27,61.55,183.41,66.51,248.68,52.46,65.27-14.05,113.19-90.88,51.22-154.5,0,0-6.75-66.23-59.35-87.85Z"/>
    </g>
    <path class="cls-2" d="M333.35,292.44c7.65,18.19,28.6,26.73,46.79,19.08s26.73-28.6,19.08-46.79c-7.65-18.19-25.72-18.18-43.91-10.53-18.19,7.65-29.62,20.05-21.97,38.24Z"/>
    <path class="cls-2" d="M203.73,263.14c-6.35,18.68,3.65,38.98,22.33,45.33,18.68,6.35,38.98-3.65,45.33-22.33,6.35-18.68-10.22-27.24-28.91-33.59-18.68-6.35-32.4-8.09-38.75,10.59Z"/>
    <path class="cls-5" d="M217.23,379.78c53.86,20.72,107.42,20.72,161.29,0,15.05-8.56,35.02-26.5,21.95-45.65h0c-9.76-13.08-30.67-15.09-44.81-8.68-39.16,14.58-76.41,14.58-115.56,0-13.77-5.76-35.51-5.03-44.81,8.68h0c-13.99,18.29,7.98,37.7,21.95,45.65Z"/>
    <path class="cls-11" d="M234.61,372.46c42.24,12.55,84.24,12.55,126.48,0,11.8-5.18,27.46-16.05,17.21-27.66h0c-7.65-7.93-24.06-9.14-35.14-5.26-30.71,8.83-59.92,8.83-90.63,0-10.8-3.49-27.85-3.05-35.14,5.26h0c-10.97,11.08,6.25,22.84,17.21,27.66Z"/>
    <path class="cls-11" d="M501.8,337.41"/>
    <circle class="cls-11" cx="362.7" cy="279.36" r="20.52"/>
    <circle class="cls-11" cx="238.15" cy="278.06" r="20.52"/>
    <ellipse class="cls-8" cx="232.48" cy="266.75" rx="7.75" ry="3.87" transform="translate(-118.17 219.33) rotate(-41.23)"/>
    <ellipse class="cls-8" cx="350.95" cy="274.67" rx="7.75" ry="3.87" transform="translate(34.56 588.52) rotate(-82.82)"/>
  </g>
  <g>
    <g>
      <path class="cls-6" d="M439.45,199.3s16.51-14.16,23.96-5.53c9.9,11.47-10.26,13.8-23.96,5.53Z"/>
      <path class="cls-6" d="M438.93,199.45s14.2-16.47,5.59-23.94c-11.44-9.93-13.83,10.22-5.59,23.94Z"/>
      <path class="cls-11" d="M441.19,198.87s-8.43-7.12-14.01-1c-5.24,5.75,8.19,17.38,14.78,13.82,5.4-2.92,2.92-9.46-.78-12.82Z"/>
      <path class="cls-11" d="M432.49,207.76s-4.41,1.41-3.65,3.61-.7,3.32-2.95.67c-2.26-2.65-1.44-4.93,1.02-3.12,1.86,1.37,4.14-3.33,4.14-3.33l1.44,2.18Z"/>
    </g>
    <g>
      <polyline class="cls-7" points="431.12 197.61 431.99 201.12 428.53 200.18"/>
      <polyline class="cls-7" points="439.61 209.14 438.97 205.58 442.36 206.75"/>
    </g>
  </g>
  <g>
    <g>
      <path class="cls-6" d="M105.07,200.13s-22.61-22.65-10.77-34.55c15.73-15.81,21.39,13.52,10.77,34.55Z"/>
      <path class="cls-6" d="M105.34,200.88s-25.74-19.01-35.76-5.55c-13.31,17.89,16.53,19.16,35.76,5.55Z"/>
      <path class="cls-11" d="M104.23,197.63s-9.52,13.16.09,20.67c9.01,7.05,24.6-13.94,18.64-23.23-4.88-7.61-14.21-3.24-18.73,2.56Z"/>
      <path class="cls-11" d="M118.26,209.41s2.56,6.31,5.7,4.95,4.95.66,1.31,4.26c-3.64,3.6-7.08,2.67-4.7-1.15,1.8-2.88-5.35-5.7-5.35-5.7l3.04-2.36Z"/>
    </g>
    <g>
      <polyline class="cls-7" points="103.51 212.54 108.57 210.87 107.57 216.07"/>
      <polyline class="cls-7" points="119.5 198.81 114.34 200.15 115.67 195.03"/>
    </g>
  </g>
  <g>
    <g>
      <path class="cls-6" d="M73.25,322.25s-19.16-1.79-18.26-11.84c1.2-13.36,15.09-1.97,18.26,11.84Z"/>
      <path class="cls-6" d="M73.66,322.5s-19.21,1.1-18.67,11.18c.72,13.39,15.01,2.51,18.67-11.18Z"/>
      <path class="cls-11" d="M71.9,321.41s.65,9.74,7.99,9.53c6.88-.2,6.01-15.9-.31-17.91-5.18-1.64-7.82,3.96-7.68,8.38Z"/>
      <path class="cls-11" d="M82.91,321.47s3.61,1.93,4.54.1,2.54-1.6,2.24,1.47c-.3,3.07-2.25,3.95-2.62,1.27-.28-2.02-4.67-.58-4.67-.58l.5-2.26Z"/>
    </g>
    <g>
      <polyline class="cls-7" points="77.29 328.59 78.99 325.87 80.53 328.66"/>
      <polyline class="cls-7" points="79.41 316.1 77.54 318.7 76.19 315.82"/>
    </g>
  </g>
</svg>